<svg viewBox="0 0 761.51 332.51" xmlns="http://www.w3.org/2000/svg"><path d="m746.8 48a7.61 7.61 0 1 1 -7.61-7.61 7.51 7.51 0 0 1 7.61 7.61zm-14 0a6.43 6.43 0 1 0 6.42-6.53 6.36 6.36 0 0 0 -6.45 6.53zm4.75 4.39h-1.09v-8.82h3.38c2 0 2.86.86 2.86 2.43a2.37 2.37 0 0 1 -2.21 2.46l2.62 3.9h-1.27l-2.47-3.9h-1.82v3.9zm1.45-4.85c1.33 0 2.64 0 2.64-1.54 0-1.22-1-1.51-2.09-1.51h-2v3zm-664-3.01a58.11 58.11 0 0 1 7.16-.53q4.22-.12 8.33-.12a64.58 64.58 0 0 1 12 1.14 26.54 26.54 0 0 1 11 4.8 25.8 25.8 0 0 1 8 10.84q3.08 7.18 3.08 19.06a61.93 61.93 0 0 1 -2 17.35 26.64 26.64 0 0 1 -5.83 10.84 20.18 20.18 0 0 1 -9 5.59 39.76 39.76 0 0 1 -11.74 1.56h-21zm0 73.73h25.11q15.28 0 23 10.5t7.76 28.76q0 12.78-2.28 21.23a31 31 0 0 1 -7.19 13.58 26.5 26.5 0 0 1 -12.56 7.19 71.56 71.56 0 0 1 -18.37 2q-6.17 0-9.47-.34t-6-.57v-82.4zm-48.2 85.6h40c2.74 0 5.32 0 7.76.11s4.79.19 7.08.34 4.45.27 6.5.35 4.15.11 6.28.11a97 97 0 0 0 27.58-3.54 57.86 57.86 0 0 0 19.63-9.7 39.56 39.56 0 0 0 11.64-14.72 45.06 45.06 0 0 0 3.87-18.81 34.14 34.14 0 0 0 -4.34-17.35 40.93 40.93 0 0 0 -11.29-12.65 55.43 55.43 0 0 0 -15.51-8 72.14 72.14 0 0 0 -16.77-3.54v-.46a57.54 57.54 0 0 0 15.29-3.88 46.31 46.31 0 0 0 12.9-7.76 37.18 37.18 0 0 0 8.9-11.18 29.9 29.9 0 0 0 3.31-13.93 38.46 38.46 0 0 0 -2.3-12.25 31.23 31.23 0 0 0 -8.45-12.55q-6.16-5.82-16.89-9.82t-27.39-4c-2.14 0-4.34 0-6.62.11s-4.65.12-7.08.12-4.83.26-7.19.34-4.68.11-7 .11h-39.91v3.2h25.34v156.15h-25.34zm171-112a83.29 83.29 0 0 1 7.88-26.25 46.85 46.85 0 0 1 16.2-18.37q10.4-6.85 27.05-6.85t27 6.85a46.87 46.87 0 0 1 16.21 18.37 83.54 83.54 0 0 1 7.86 26.28 220.42 220.42 0 0 1 2.06 30.48 206.16 206.16 0 0 1 -2.74 35.83q-2.75 15.3-9.13 25.57a40.32 40.32 0 0 1 -16.55 15.29q-10.16 5-24.77 5-14.84 0-24.88-5a40.39 40.39 0 0 1 -16.43-15.29q-6.41-10.28-9.13-25.57a205.19 205.19 0 0 1 -2.74-35.83 220.44 220.44 0 0 1 2.05-30.48zm-22.4 62.35a86.44 86.44 0 0 0 16.6 27.16 81.31 81.31 0 0 0 25.22 18.83 71.8 71.8 0 0 0 31.73 7.08 68.41 68.41 0 0 0 31.16-7.3 85.52 85.52 0 0 0 25.22-19.18 90.45 90.45 0 0 0 16.89-27.16 83 83 0 0 0 6.17-31.27 84 84 0 0 0 -6.74-33.79 88.25 88.25 0 0 0 -17.92-26.93 84.39 84.39 0 0 0 -25.45-17.92 69.91 69.91 0 0 0 -29.33-6.51 67.18 67.18 0 0 0 -28.3 6.51 86.29 86.29 0 0 0 -25.45 17.92 94 94 0 0 0 -18.49 26.93 79.31 79.31 0 0 0 -7.19 33.79 87.78 87.78 0 0 0 5.93 31.84zm194-62.32a83.55 83.55 0 0 1 7.88-26.25 46.85 46.85 0 0 1 16.2-18.37q10.39-6.85 27.05-6.85t27.05 6.85a46.87 46.87 0 0 1 16.21 18.37 83.54 83.54 0 0 1 7.87 26.25 220.42 220.42 0 0 1 2.06 30.48 205.19 205.19 0 0 1 -2.72 35.83q-2.75 15.3-9.13 25.57a40.32 40.32 0 0 1 -16.55 15.29q-10.15 5-24.77 5-14.83 0-24.88-5a40.46 40.46 0 0 1 -16.43-15.29q-6.4-10.28-9.13-25.57a205.19 205.19 0 0 1 -2.74-35.83 220.44 220.44 0 0 1 2.05-30.48zm-22.37 62.32a86.44 86.44 0 0 0 16.55 27.16 81.31 81.31 0 0 0 25.22 18.83 71.8 71.8 0 0 0 31.73 7.08 68.38 68.38 0 0 0 31.16-7.3 85.52 85.52 0 0 0 25.22-19.18 90.68 90.68 0 0 0 16.9-27.16 85.28 85.28 0 0 0 -.58-65.06 88.41 88.41 0 0 0 -17.91-26.93 84.56 84.56 0 0 0 -25.46-17.92 69.91 69.91 0 0 0 -29.33-6.51 67.21 67.21 0 0 0 -28.3 6.51 86.29 86.29 0 0 0 -25.43 17.92 94 94 0 0 0 -18.49 26.93 79.31 79.31 0 0 0 -7.19 33.79 87.78 87.78 0 0 0 5.93 31.84zm147 49.65h54.1v-3.2h-25.32v-153.16h.46l54.32 156.58 54.56-158.18h.46v154.76h-25.34v3.2h73.5v-3.2h-25.34v-156.13h25.34v-3.2h-50.45l-42.23 122.81h-.45l-42.23-122.81h-51.36v3.2h25.34v156.13h-25.34v3.2zm204-1a12.12 12.12 0 1 0 -3.54-8.56 11.66 11.66 0 0 0 3.54 8.56zm6.28-39.6h4.57l7.04-94.26c.15-1.37.3-3.11.46-5.25l.45-6.39c.15-2.13.31-4.07.46-5.82s.23-2.93.23-3.54a11 11 0 1 0 -21.91 0c0 .61.07 1.79.22 3.54s.31 3.69.46 5.82.3 4.26.46 6.39.3 3.88.45 5.25l7.08 94.28zm-654.75 66.34h22.77c13.54 0 17.92 7.4 17.92 14.73a12.16 12.16 0 0 1 -11.07 12.1l.16.16c1.51-.24 12.82 2.47 12.82 13.93 0 10.36-8 15.93-19.83 15.93h-22.77zm3.5 25.8h19.27c9.48 0 14.41-4.78 14.41-11.71 0-8.2-6.85-11.07-14.41-11.07h-19.27zm0 28h19.27c10 0 16.32-4.45 16.32-12.9 0-9.71-8.83-12.1-16.32-12.1h-19.27zm86.39-53.81h3.9l-22.85 33.05v23.81h-3.5v-23.81l-22.7-33.05h3.98l20.55 30.1zm78.03 16.97c-1.51-9.56-9.87-15.29-19.35-15.29-14.89 0-23.57 12.18-23.57 26.75s8.68 26.76 23.57 26.76c11.07 0 19.67-9.88 20.31-20.47h3.5c-1.27 13.54-11.31 23.49-23.81 23.49-17 0-27.07-13.14-27.07-29.78s10-29.78 27.07-29.78c20.15 0 22.77 17.52 22.85 18.32zm13.85-16.97h3.5v56.86h-3.5zm15.69 0h4.38l35.91 52.16h.16v-52.16h3.5v56.86h-4.14l-36.15-52.56h-.16v52.56h-3.5zm54.62.01h18.63c20.3 0 26.28 13.93 26.28 28.34 0 16.09-8.21 28.51-26.44 28.51h-18.47zm3.5 53.82h15.29c10.59 0 22.61-5.81 22.61-25.48 0-23.25-14.89-25.32-23.33-25.32h-14.57zm88.22-53.83h3.9l-22.85 33.05v23.81h-3.5v-23.81l-22.7-33.05h3.98l20.55 30.1zm34.87 38.78c-.55 8.44.88 16.41 12.19 16.41 13.13 0 12.5-9.32 12.5-17.2v-38h3.5v39.17c0 6.69.24 19-15.61 19-15.36 0-16.08-10.91-16.08-19.43zm63.46 19.43c-17 0-27.07-13.14-27.07-29.78s10-29.78 27.07-29.78 27 13.14 27 29.78-10 29.78-27 29.78zm0-3c14.81 0 23.49-12.19 23.49-26.76s-8.68-26.75-23.49-26.75-23.57 12.16-23.57 26.71 8.68 26.76 23.57 26.76zm71.5-38.96c-.39-9.72-7.72-14.57-18.23-14.57-6.45 0-15.61 2.7-15.61 12.1 0 9.16 9.72 10.67 19.35 12.66s19.43 4.46 19.43 15.77c0 11.78-11.31 16-20 16-13.29 0-24.12-5.49-24-20.14h3.5c-.72 12.42 9.24 17.12 20.46 17.12 6.85 0 16.49-3.11 16.49-13 0-9.64-9.72-11.31-19.43-13.3s-19.35-4.3-19.35-15.13 10.2-15.11 19.2-15.11c11.86 0 21.18 5.1 21.74 17.6zm52.23 37.58v3.03h-38.62v-56.86h38.23v3.03h-34.72v22.78h32.65v3.02h-32.65v25zm8.12-53.82h24.21c6.45 0 16.56 2.3 16.56 15.92 0 9.95-6.53 15.61-17.83 15.61h-19.43v25.32h-3.51zm3.51 28.5h20c10.28 0 13.78-6.77 13.78-12.66 0-4.22-1.91-12.82-13.3-12.82h-20.48zm49.2.32v28.03h-3.5v-56.86h3.5v25.81h36.31v-25.81h3.51v56.86h-3.51v-28.03z"/></svg>